<svg xmlns="http://www.w3.org/2000/svg" xmlns:xlink="http://www.w3.org/1999/xlink" width="500" zoomAndPan="magnify" viewBox="0 0 375 374.999991" height="500" preserveAspectRatio="xMidYMid meet" version="1.2"><defs><clipPath id="8662ae1901"><path d="M 170.023438 147 L 274.273438 147 L 274.273438 172.078125 L 170.023438 172.078125 Z M 170.023438 147 "/></clipPath><clipPath id="609b390547"><path d="M 181 126.328125 L 199 126.328125 L 199 138 L 181 138 Z M 181 126.328125 "/></clipPath><clipPath id="a4d410de16"><path d="M 153 233 L 194 233 L 194 261 L 153 261 Z M 153 233 "/></clipPath><clipPath id="6a30a01fca"><path d="M 81.835938 221.96875 L 197.425781 234.367188 L 192.144531 283.585938 L 76.558594 271.1875 Z M 81.835938 221.96875 "/></clipPath><clipPath id="666d87bf31"><path d="M 81.835938 221.96875 L 197.425781 234.367188 L 192.144531 283.585938 L 76.558594 271.1875 Z M 81.835938 221.96875 "/></clipPath><clipPath id="cde9611b2b"><path d="M 81.835938 221.96875 L 197.425781 234.367188 L 192.144531 283.585938 L 76.558594 271.1875 Z M 81.835938 221.96875 "/></clipPath><clipPath id="0f1ddcf39a"><path d="M 131 250 L 148 250 L 148 258 L 131 258 Z M 131 250 "/></clipPath><clipPath id="3252e219bd"><path d="M 81.835938 221.96875 L 197.425781 234.367188 L 192.144531 283.585938 L 76.558594 271.1875 Z M 81.835938 221.96875 "/></clipPath><clipPath id="c3fe77bbd2"><path d="M 81.835938 221.96875 L 197.425781 234.367188 L 192.144531 283.585938 L 76.558594 271.1875 Z M 81.835938 221.96875 "/></clipPath><clipPath id="55a3ef5f7c"><path d="M 81.835938 221.96875 L 197.425781 234.367188 L 192.144531 283.585938 L 76.558594 271.1875 Z M 81.835938 221.96875 "/></clipPath><clipPath id="afa7b95531"><path d="M 77 247 L 194 247 L 194 274 L 77 274 Z M 77 247 "/></clipPath><clipPath id="14ea81e403"><path d="M 81.835938 221.96875 L 197.425781 234.367188 L 192.144531 283.585938 L 76.558594 271.1875 Z M 81.835938 221.96875 "/></clipPath><clipPath id="63b2fa6cac"><path d="M 81.835938 221.96875 L 197.425781 234.367188 L 192.144531 283.585938 L 76.558594 271.1875 Z M 81.835938 221.96875 "/></clipPath><clipPath id="5f1d76570c"><path d="M 81.835938 221.96875 L 197.425781 234.367188 L 192.144531 283.585938 L 76.558594 271.1875 Z M 81.835938 221.96875 "/></clipPath><clipPath id="2efb597150"><path d="M 84 250 L 103 250 L 103 257 L 84 257 Z M 84 250 "/></clipPath><clipPath id="5f590136ba"><path d="M 81.835938 221.96875 L 197.425781 234.367188 L 192.144531 283.585938 L 76.558594 271.1875 Z M 81.835938 221.96875 "/></clipPath><clipPath id="913bb9a44e"><path d="M 81.835938 221.96875 L 197.425781 234.367188 L 192.144531 283.585938 L 76.558594 271.1875 Z M 81.835938 221.96875 "/></clipPath><clipPath id="cf32cf6770"><path d="M 81.835938 221.96875 L 197.425781 234.367188 L 192.144531 283.585938 L 76.558594 271.1875 Z M 81.835938 221.96875 "/></clipPath><clipPath id="bcf63e50dd"><path d="M 116 256 L 121 256 L 121 261 L 116 261 Z M 116 256 "/></clipPath><clipPath id="ed7398fb4e"><path d="M 81.835938 221.96875 L 197.425781 234.367188 L 192.144531 283.585938 L 76.558594 271.1875 Z M 81.835938 221.96875 "/></clipPath><clipPath id="a105a15750"><path d="M 81.835938 221.96875 L 197.425781 234.367188 L 192.144531 283.585938 L 76.558594 271.1875 Z M 81.835938 221.96875 "/></clipPath><clipPath id="1c8410ae9d"><path d="M 81.835938 221.96875 L 197.425781 234.367188 L 192.144531 283.585938 L 76.558594 271.1875 Z M 81.835938 221.96875 "/></clipPath><clipPath id="039f897574"><path d="M 121 256 L 125 256 L 125 262 L 121 262 Z M 121 256 "/></clipPath><clipPath id="ae8fe0fa1f"><path d="M 81.835938 221.96875 L 197.425781 234.367188 L 192.144531 283.585938 L 76.558594 271.1875 Z M 81.835938 221.96875 "/></clipPath><clipPath id="78092ec7c4"><path d="M 81.835938 221.96875 L 197.425781 234.367188 L 192.144531 283.585938 L 76.558594 271.1875 Z M 81.835938 221.96875 "/></clipPath><clipPath id="2a863c5a36"><path d="M 81.835938 221.96875 L 197.425781 234.367188 L 192.144531 283.585938 L 76.558594 271.1875 Z M 81.835938 221.96875 "/></clipPath><clipPath id="1c9a1ed20e"><path d="M 125 257 L 130 257 L 130 262 L 125 262 Z M 125 257 "/></clipPath><clipPath id="1d1a8a7d01"><path d="M 81.835938 221.96875 L 197.425781 234.367188 L 192.144531 283.585938 L 76.558594 271.1875 Z M 81.835938 221.96875 "/></clipPath><clipPath id="e3b08fc37e"><path d="M 81.835938 221.96875 L 197.425781 234.367188 L 192.144531 283.585938 L 76.558594 271.1875 Z M 81.835938 221.96875 "/></clipPath><clipPath id="1d81aefccb"><path d="M 81.835938 221.96875 L 197.425781 234.367188 L 192.144531 283.585938 L 76.558594 271.1875 Z M 81.835938 221.96875 "/></clipPath><clipPath id="5f851511ce"><path d="M 130 257 L 135 257 L 135 263 L 130 263 Z M 130 257 "/></clipPath><clipPath id="5f940e9af6"><path d="M 81.835938 221.96875 L 197.425781 234.367188 L 192.144531 283.585938 L 76.558594 271.1875 Z M 81.835938 221.96875 "/></clipPath><clipPath id="e6948457b5"><path d="M 81.835938 221.96875 L 197.425781 234.367188 L 192.144531 283.585938 L 76.558594 271.1875 Z M 81.835938 221.96875 "/></clipPath><clipPath id="cc267e4318"><path d="M 81.835938 221.96875 L 197.425781 234.367188 L 192.144531 283.585938 L 76.558594 271.1875 Z M 81.835938 221.96875 "/></clipPath><clipPath id="369089a9cd"><path d="M 135 258 L 139 258 L 139 263 L 135 263 Z M 135 258 "/></clipPath><clipPath id="10bb4a3911"><path d="M 81.835938 221.96875 L 197.425781 234.367188 L 192.144531 283.585938 L 76.558594 271.1875 Z M 81.835938 221.96875 "/></clipPath><clipPath id="3e6c5b83b7"><path d="M 81.835938 221.96875 L 197.425781 234.367188 L 192.144531 283.585938 L 76.558594 271.1875 Z M 81.835938 221.96875 "/></clipPath><clipPath id="a0a8dd89f3"><path d="M 81.835938 221.96875 L 197.425781 234.367188 L 192.144531 283.585938 L 76.558594 271.1875 Z M 81.835938 221.96875 "/></clipPath><clipPath id="f3e1cb4c21"><path d="M 139 258 L 144 258 L 144 264 L 139 264 Z M 139 258 "/></clipPath><clipPath id="cb0a98bb9c"><path d="M 81.835938 221.96875 L 197.425781 234.367188 L 192.144531 283.585938 L 76.558594 271.1875 Z M 81.835938 221.96875 "/></clipPath><clipPath id="4e9838a55e"><path d="M 81.835938 221.96875 L 197.425781 234.367188 L 192.144531 283.585938 L 76.558594 271.1875 Z M 81.835938 221.96875 "/></clipPath><clipPath id="dfd56469db"><path d="M 81.835938 221.96875 L 197.425781 234.367188 L 192.144531 283.585938 L 76.558594 271.1875 Z M 81.835938 221.96875 "/></clipPath><clipPath id="d2eb2a735b"><path d="M 144 259 L 148 259 L 148 264 L 144 264 Z M 144 259 "/></clipPath><clipPath id="9245a51981"><path d="M 81.835938 221.96875 L 197.425781 234.367188 L 192.144531 283.585938 L 76.558594 271.1875 Z M 81.835938 221.96875 "/></clipPath><clipPath id="1d25f0482b"><path d="M 81.835938 221.96875 L 197.425781 234.367188 L 192.144531 283.585938 L 76.558594 271.1875 Z M 81.835938 221.96875 "/></clipPath><clipPath id="bbf625d1a2"><path d="M 81.835938 221.96875 L 197.425781 234.367188 L 192.144531 283.585938 L 76.558594 271.1875 Z M 81.835938 221.96875 "/></clipPath><clipPath id="e1c7f72581"><path d="M 149 259 L 153 259 L 153 265 L 149 265 Z M 149 259 "/></clipPath><clipPath id="aeb051eaf7"><path d="M 81.835938 221.96875 L 197.425781 234.367188 L 192.144531 283.585938 L 76.558594 271.1875 Z M 81.835938 221.96875 "/></clipPath><clipPath id="ca85e8a624"><path d="M 81.835938 221.96875 L 197.425781 234.367188 L 192.144531 283.585938 L 76.558594 271.1875 Z M 81.835938 221.96875 "/></clipPath><clipPath id="75eee4a593"><path d="M 81.835938 221.96875 L 197.425781 234.367188 L 192.144531 283.585938 L 76.558594 271.1875 Z M 81.835938 221.96875 "/></clipPath><clipPath id="e927233ff3"><path d="M 153 260 L 158 260 L 158 265 L 153 265 Z M 153 260 "/></clipPath><clipPath id="85e14d7fcc"><path d="M 81.835938 221.96875 L 197.425781 234.367188 L 192.144531 283.585938 L 76.558594 271.1875 Z M 81.835938 221.96875 "/></clipPath><clipPath id="3bf81b49bb"><path d="M 81.835938 221.96875 L 197.425781 234.367188 L 192.144531 283.585938 L 76.558594 271.1875 Z M 81.835938 221.96875 "/></clipPath><clipPath id="59da469112"><path d="M 81.835938 221.96875 L 197.425781 234.367188 L 192.144531 283.585938 L 76.558594 271.1875 Z M 81.835938 221.96875 "/></clipPath><clipPath id="ec8ef79ce2"><path d="M 158 260 L 162 260 L 162 266 L 158 266 Z M 158 260 "/></clipPath><clipPath id="4bb46c5086"><path d="M 81.835938 221.96875 L 197.425781 234.367188 L 192.144531 283.585938 L 76.558594 271.1875 Z M 81.835938 221.96875 "/></clipPath><clipPath id="aa4bf277fd"><path d="M 81.835938 221.96875 L 197.425781 234.367188 L 192.144531 283.585938 L 76.558594 271.1875 Z M 81.835938 221.96875 "/></clipPath><clipPath id="2bb99c7af7"><path d="M 81.835938 221.96875 L 197.425781 234.367188 L 192.144531 283.585938 L 76.558594 271.1875 Z M 81.835938 221.96875 "/></clipPath><clipPath id="529cb231f4"><path d="M 105 252 L 114 252 L 114 265 L 105 265 Z M 105 252 "/></clipPath><clipPath id="74e3d7dacb"><path d="M 81.835938 221.96875 L 197.425781 234.367188 L 192.144531 283.585938 L 76.558594 271.1875 Z M 81.835938 221.96875 "/></clipPath><clipPath id="07d50c8c40"><path d="M 81.835938 221.96875 L 197.425781 234.367188 L 192.144531 283.585938 L 76.558594 271.1875 Z M 81.835938 221.96875 "/></clipPath><clipPath id="b63c2e02fb"><path d="M 81.835938 221.96875 L 197.425781 234.367188 L 192.144531 283.585938 L 76.558594 271.1875 Z M 81.835938 221.96875 "/></clipPath><clipPath id="3c1a61bd08"><path d="M 77 259 L 194 259 L 194 274 L 77 274 Z M 77 259 "/></clipPath><clipPath id="c9dd9396dd"><path d="M 81.835938 221.96875 L 197.425781 234.367188 L 192.144531 283.585938 L 76.558594 271.1875 Z M 81.835938 221.96875 "/></clipPath><clipPath id="bf33fab5a8"><path d="M 81.835938 221.96875 L 197.425781 234.367188 L 192.144531 283.585938 L 76.558594 271.1875 Z M 81.835938 221.96875 "/></clipPath><clipPath id="03b2c3bd32"><path d="M 81.835938 221.96875 L 197.425781 234.367188 L 192.144531 283.585938 L 76.558594 271.1875 Z M 81.835938 221.96875 "/></clipPath><clipPath id="b9c1e0df76"><path d="M 125 264 L 145 264 L 145 276 L 125 276 Z M 125 264 "/></clipPath><clipPath id="3fa872c787"><path d="M 81.835938 221.96875 L 197.425781 234.367188 L 192.144531 283.585938 L 76.558594 271.1875 Z M 81.835938 221.96875 "/></clipPath><clipPath id="dfff2eb532"><path d="M 81.835938 221.96875 L 197.425781 234.367188 L 192.144531 283.585938 L 76.558594 271.1875 Z M 81.835938 221.96875 "/></clipPath><clipPath id="af7f0c715f"><path d="M 81.835938 221.96875 L 197.425781 234.367188 L 192.144531 283.585938 L 76.558594 271.1875 Z M 81.835938 221.96875 "/></clipPath><clipPath id="263ff1b5a0"><path d="M 129 265 L 155 265 L 155 279 L 129 279 Z M 129 265 "/></clipPath><clipPath id="4146aa1ffc"><path d="M 81.835938 221.96875 L 197.425781 234.367188 L 192.144531 283.585938 L 76.558594 271.1875 Z M 81.835938 221.96875 "/></clipPath><clipPath id="1546e4e7d2"><path d="M 81.835938 221.96875 L 197.425781 234.367188 L 192.144531 283.585938 L 76.558594 271.1875 Z M 81.835938 221.96875 "/></clipPath><clipPath id="17dc107519"><path d="M 81.835938 221.96875 L 197.425781 234.367188 L 192.144531 283.585938 L 76.558594 271.1875 Z M 81.835938 221.96875 "/></clipPath><clipPath id="9e08ba3215"><path d="M 168 261 L 188 261 L 188 273 L 168 273 Z M 168 261 "/></clipPath><clipPath id="e9e38aa8aa"><path d="M 81.835938 221.96875 L 197.425781 234.367188 L 192.144531 283.585938 L 76.558594 271.1875 Z M 81.835938 221.96875 "/></clipPath><clipPath id="5379d2d02f"><path d="M 81.835938 221.96875 L 197.425781 234.367188 L 192.144531 283.585938 L 76.558594 271.1875 Z M 81.835938 221.96875 "/></clipPath><clipPath id="8d19678501"><path d="M 81.835938 221.96875 L 197.425781 234.367188 L 192.144531 283.585938 L 76.558594 271.1875 Z M 81.835938 221.96875 "/></clipPath><clipPath id="eb0f3a4be4"><path d="M 127 264 L 129 264 L 129 273 L 127 273 Z M 127 264 "/></clipPath><clipPath id="fa013c5fe6"><path d="M 81.835938 221.96875 L 197.425781 234.367188 L 192.144531 283.585938 L 76.558594 271.1875 Z M 81.835938 221.96875 "/></clipPath><clipPath id="7337e70caf"><path d="M 81.835938 221.96875 L 197.425781 234.367188 L 192.144531 283.585938 L 76.558594 271.1875 Z M 81.835938 221.96875 "/></clipPath><clipPath id="c44e8c2ca6"><path d="M 81.835938 221.96875 L 197.425781 234.367188 L 192.144531 283.585938 L 76.558594 271.1875 Z M 81.835938 221.96875 "/></clipPath><clipPath id="27554d5530"><path d="M 11.867188 15 L 358 15 L 358 372 L 11.867188 372 Z M 11.867188 15 "/></clipPath></defs><g id="6d73dea8e4"><g clip-rule="nonzero" clip-path="url(#8662ae1901)"><path style=" stroke:none;fill-rule:nonzero;fill:#040606;fill-opacity:1;" d="M 239.035156 162.675781 C 238.3125 162.675781 237.730469 162.09375 237.730469 161.378906 C 237.730469 160.660156 238.3125 160.082031 239.035156 160.082031 C 239.753906 160.082031 240.335938 160.660156 240.335938 161.378906 C 240.335938 162.09375 239.753906 162.675781 239.035156 162.675781 Z M 231.535156 162.675781 C 230.8125 162.675781 230.230469 162.09375 230.230469 161.378906 C 230.230469 160.660156 230.8125 160.082031 231.535156 160.082031 C 232.253906 160.082031 232.839844 160.660156 232.839844 161.378906 C 232.839844 162.09375 232.253906 162.675781 231.535156 162.675781 Z M 224.035156 162.675781 C 223.316406 162.675781 222.730469 162.09375 222.730469 161.378906 C 222.730469 160.660156 223.316406 160.082031 224.035156 160.082031 C 224.757812 160.082031 225.339844 160.660156 225.339844 161.378906 C 225.339844 162.09375 224.757812 162.675781 224.035156 162.675781 Z M 216.539062 162.675781 C 215.816406 162.675781 215.234375 162.09375 215.234375 161.378906 C 215.234375 160.660156 215.816406 160.082031 216.539062 160.082031 C 217.257812 160.082031 217.839844 160.660156 217.839844 161.378906 C 217.839844 162.09375 217.257812 162.675781 216.539062 162.675781 Z M 209.039062 162.675781 C 208.316406 162.675781 207.734375 162.09375 207.734375 161.378906 C 207.734375 160.660156 208.316406 160.082031 209.039062 160.082031 C 209.761719 160.082031 210.34375 160.660156 210.34375 161.378906 C 210.34375 162.09375 209.761719 162.675781 209.039062 162.675781 Z M 201.539062 162.675781 C 200.820312 162.675781 200.234375 162.09375 200.234375 161.378906 C 200.234375 160.660156 200.820312 160.082031 201.539062 160.082031 C 202.261719 160.082031 202.84375 160.660156 202.84375 161.378906 C 202.84375 162.09375 202.261719 162.675781 201.539062 162.675781 Z M 264.046875 154.101562 L 264.046875 151.871094 L 273.457031 151.871094 C 273.835938 150.710938 274.015625 149.984375 274.015625 149.984375 C 274.261719 148.742188 273.417969 147.726562 272.144531 147.726562 C 272.144531 147.726562 255.105469 147.726562 249.425781 147.726562 C 248.125 147.726562 247.566406 148.417969 247.289062 149.058594 C 246.492188 150.902344 244.769531 154.03125 243.804688 155.5625 C 242.46875 157.679688 238.019531 157.265625 215.183594 157.554688 C 201.945312 157.71875 196.773438 157.859375 193.320312 157.769531 C 191.480469 157.722656 190.523438 157.53125 190.15625 156.964844 C 189.851562 156.492188 189.851562 155.949219 189.761719 155.160156 C 189.539062 153.195312 189.480469 152.535156 189.480469 152.535156 C 189.363281 151.273438 188.222656 150.242188 186.953125 150.242188 L 172.519531 150.242188 C 171.246094 150.242188 170.03125 150.992188 170.089844 152.242188 C 170.128906 153.035156 170.207031 153.746094 171.214844 155.5625 C 172.78125 158.363281 174.398438 158.417969 174.976562 164.933594 C 175.167969 167.058594 175.292969 168.492188 175.378906 169.457031 C 175.554688 171.449219 176.734375 171.765625 177.457031 171.878906 C 178.25 172.003906 179.085938 172.082031 179.75 172.082031 C 179.75 172.082031 237.152344 172.082031 246.695312 172.082031 C 256.238281 172.082031 258.804688 171.253906 264.875 165.90625 C 268.832031 162.414062 271.285156 157.539062 272.644531 154.101562 L 264.046875 154.101562 "/></g><path style=" stroke:none;fill-rule:nonzero;fill:#27547d;fill-opacity:1;" d="M 246.558594 146.847656 L 246.476562 145.699219 L 255.164062 145.699219 L 255.164062 142.902344 L 243.453125 142.902344 L 243.453125 150.316406 L 244.941406 150.316406 C 245.765625 148.746094 246.453125 147.324219 246.558594 146.847656 "/><path style=" stroke:none;fill-rule:nonzero;fill:#27547d;fill-opacity:1;" d="M 242.074219 134.011719 L 230.363281 134.011719 L 230.363281 141.429688 L 242.074219 141.429688 L 242.074219 134.011719 "/><path style=" stroke:none;fill-rule:nonzero;fill:#27547d;fill-opacity:1;" d="M 244.144531 151.789062 L 243.453125 151.789062 L 243.453125 153.011719 C 243.679688 152.621094 243.910156 152.210938 244.144531 151.789062 "/><path style=" stroke:none;fill-rule:nonzero;fill:#27547d;fill-opacity:1;" d="M 268.253906 145.699219 L 268.253906 142.902344 L 256.546875 142.902344 L 256.546875 145.699219 L 268.253906 145.699219 "/><path style=" stroke:none;fill-rule:nonzero;fill:#27547d;fill-opacity:1;" d="M 255.164062 134.011719 L 243.453125 134.011719 L 243.453125 141.429688 L 255.164062 141.429688 L 255.164062 134.011719 "/><path style=" stroke:none;fill-rule:nonzero;fill:#27547d;fill-opacity:1;" d="M 228.984375 142.898438 L 217.269531 142.898438 L 217.269531 150.316406 L 228.984375 150.316406 L 228.984375 142.898438 "/><path style=" stroke:none;fill-rule:nonzero;fill:#27547d;fill-opacity:1;" d="M 222.195312 155.445312 C 224.730469 155.417969 226.976562 155.394531 228.984375 155.363281 L 228.984375 151.789062 L 217.269531 151.789062 L 217.269531 155.503906 L 222.195312 155.445312 "/><path style=" stroke:none;fill-rule:nonzero;fill:#27547d;fill-opacity:1;" d="M 242.074219 154.558594 L 242.074219 151.789062 L 230.363281 151.789062 L 230.363281 155.34375 C 237.058594 155.234375 240.621094 155.066406 242.074219 154.558594 "/><path style=" stroke:none;fill-rule:nonzero;fill:#27547d;fill-opacity:1;" d="M 242.074219 142.898438 L 230.363281 142.898438 L 230.363281 150.316406 L 242.074219 150.316406 L 242.074219 142.898438 "/><g clip-rule="nonzero" clip-path="url(#609b390547)"><path style=" stroke:none;fill-rule:nonzero;fill:#040606;fill-opacity:1;" d="M 193.160156 130.554688 L 189.984375 130.554688 L 189.984375 128.824219 L 193.160156 128.824219 Z M 188.328125 130.554688 L 185.148438 130.554688 L 185.148438 128.824219 L 188.328125 128.824219 Z M 194.945312 131.972656 L 194.945312 128.824219 L 198.757812 128.824219 L 198.757812 128.632812 C 198.757812 127.363281 197.714844 126.328125 196.441406 126.328125 L 183.375 126.328125 C 182.105469 126.328125 181.0625 127.363281 181.0625 128.632812 L 181.0625 128.824219 L 183.496094 128.824219 L 183.496094 130.554688 L 181.0625 130.554688 L 181.0625 137.40625 L 198.757812 137.40625 L 198.757812 131.972656 L 194.945312 131.972656 "/></g><path style=" stroke:none;fill-rule:nonzero;fill:#040606;fill-opacity:1;" d="M 199.792969 143.589844 L 195.824219 143.589844 L 195.824219 141.429688 L 199.792969 141.429688 Z M 193.757812 143.589844 L 189.78125 143.589844 L 189.78125 141.429688 L 193.757812 141.429688 Z M 187.714844 143.589844 L 183.742188 143.589844 L 183.742188 141.429688 L 187.714844 141.429688 Z M 202.027344 145.367188 L 202.027344 141.429688 L 206.613281 141.429688 C 206.613281 140.164062 205.570312 139.128906 204.300781 139.128906 L 178.6875 139.128906 C 177.414062 139.128906 176.375 140.164062 176.375 141.429688 L 181.398438 141.429688 L 181.398438 143.589844 L 176.375 143.589844 L 176.375 145.917969 C 176.375 147.183594 177.414062 148.21875 178.6875 148.21875 L 188.738281 148.21875 C 190.511719 148.210938 191.039062 148.515625 191.164062 149.371094 C 191.246094 149.941406 191.25 150.292969 191.375 151.554688 C 191.375 151.554688 191.464844 152.464844 191.574219 153.464844 C 191.6875 154.46875 192.246094 155.28125 192.972656 155.332031 C 194.34375 155.425781 195.429688 155.523438 196.699219 155.523438 L 204.300781 155.523438 C 205.570312 155.523438 206.613281 154.488281 206.613281 153.21875 L 206.613281 145.367188 L 202.027344 145.367188 "/><g clip-rule="nonzero" clip-path="url(#a4d410de16)"><g clip-rule="nonzero" clip-path="url(#6a30a01fca)"><g clip-rule="nonzero" clip-path="url(#666d87bf31)"><g clip-rule="nonzero" clip-path="url(#cde9611b2b)"><path style=" stroke:none;fill-rule:nonzero;fill:#040134;fill-opacity:1;" d="M 193.929688 233.992188 L 185.570312 233.09375 C 184.003906 232.925781 182.363281 233.617188 181.300781 234.890625 L 173.394531 246.707031 C 171.832031 249.042969 169.585938 250.917969 166.980469 252.027344 C 160.546875 254.765625 153.257812 255.863281 153.257812 255.863281 L 165.746094 258.136719 L 164.710938 259.6875 L 175.613281 260.855469 L 176.039062 260.230469 L 180.308594 260.6875 Z M 193.929688 233.992188 "/></g></g></g></g><g clip-rule="nonzero" clip-path="url(#0f1ddcf39a)"><g clip-rule="nonzero" clip-path="url(#3252e219bd)"><g clip-rule="nonzero" clip-path="url(#c3fe77bbd2)"><g clip-rule="nonzero" clip-path="url(#55a3ef5f7c)"><path style=" stroke:none;fill-rule:nonzero;fill:#008afa;fill-opacity:1;" d="M 141.984375 257.25 L 131.082031 256.082031 L 134.679688 251.863281 C 135.761719 250.589844 137.414062 249.902344 138.980469 250.070312 L 147.339844 250.964844 Z M 141.984375 257.25 "/></g></g></g></g><g clip-rule="nonzero" clip-path="url(#afa7b95531)"><g clip-rule="nonzero" clip-path="url(#14ea81e403)"><g clip-rule="nonzero" clip-path="url(#63b2fa6cac)"><g clip-rule="nonzero" clip-path="url(#5f1d76570c)"><path style=" stroke:none;fill-rule:nonzero;fill:#9eceff;fill-opacity:1;" d="M 193.570312 266.570312 C 193.488281 266.765625 193.371094 266.949219 193.222656 267.117188 C 191.542969 269.003906 188.207031 270.371094 184.304688 271.566406 C 182.71875 272.054688 181.070312 272.332031 179.40625 272.386719 C 169.976562 272.691406 160.554688 273.101562 151.121094 273.296875 C 139.757812 273.523438 128.375 272.582031 117.019531 271.820312 C 113.527344 271.585938 110.023438 271.363281 106.527344 271.074219 C 103.808594 270.847656 101.09375 270.582031 98.398438 270.238281 C 97.367188 270.105469 96.339844 269.960938 95.3125 269.804688 C 92.628906 269.277344 90.105469 268.621094 87.804688 267.777344 C 86.664062 267.363281 85.582031 266.898438 84.5625 266.382812 C 84.078125 266.144531 83.609375 265.886719 83.15625 265.621094 C 81.417969 264.417969 79.8125 262.726562 78.292969 260.71875 C 77.949219 260.257812 77.871094 259.679688 78.054688 259.167969 C 78.132812 258.933594 78.265625 258.714844 78.453125 258.53125 C 80.007812 256.992188 82.03125 255.824219 84.238281 254.800781 C 84.265625 254.785156 84.292969 254.773438 84.320312 254.761719 C 86.875 252.910156 89.460938 251.371094 92.085938 250.171875 C 93.398438 249.574219 94.722656 249.058594 96.054688 248.632812 C 98.289062 247.921875 100.667969 247.761719 102.988281 248.09375 L 116.578125 250.042969 L 118.460938 250.3125 L 121.230469 250.710938 L 125.929688 251.386719 L 180.800781 259.257812 C 182.097656 259.445312 183.375 259.765625 184.605469 260.214844 C 187.855469 261.417969 190.75 262.648438 192.785156 263.960938 C 193.675781 264.539062 193.976562 265.660156 193.570312 266.570312 Z M 193.570312 266.570312 "/></g></g></g></g><g clip-rule="nonzero" clip-path="url(#2efb597150)"><g clip-rule="nonzero" clip-path="url(#5f590136ba)"><g clip-rule="nonzero" clip-path="url(#913bb9a44e)"><g clip-rule="nonzero" clip-path="url(#cf32cf6770)"><path style=" stroke:none;fill-rule:nonzero;fill:#040134;fill-opacity:1;" d="M 102.660156 252.179688 C 102.257812 253.574219 101.105469 256.1875 98.136719 256.289062 L 84.238281 254.800781 C 84.265625 254.785156 84.292969 254.773438 84.320312 254.761719 C 86.875 252.910156 89.460938 251.371094 92.085938 250.171875 L 102.023438 251.238281 C 102.484375 251.285156 102.789062 251.738281 102.660156 252.179688 Z M 102.660156 252.179688 "/></g></g></g></g><g clip-rule="nonzero" clip-path="url(#bcf63e50dd)"><g clip-rule="nonzero" clip-path="url(#ed7398fb4e)"><g clip-rule="nonzero" clip-path="url(#a105a15750)"><g clip-rule="nonzero" clip-path="url(#1c8410ae9d)"><path style=" stroke:none;fill-rule:nonzero;fill:#040134;fill-opacity:1;" d="M 118.921875 260.726562 L 117.460938 260.570312 C 116.960938 260.515625 116.597656 260.066406 116.652344 259.570312 L 116.925781 257.011719 C 116.980469 256.511719 117.429688 256.152344 117.929688 256.207031 L 119.390625 256.363281 C 119.890625 256.417969 120.25 256.867188 120.199219 257.363281 L 119.925781 259.921875 C 119.871094 260.417969 119.421875 260.78125 118.921875 260.726562 Z M 118.921875 260.726562 "/></g></g></g></g><g clip-rule="nonzero" clip-path="url(#039f897574)"><g clip-rule="nonzero" clip-path="url(#ae8fe0fa1f)"><g clip-rule="nonzero" clip-path="url(#78092ec7c4)"><g clip-rule="nonzero" clip-path="url(#2a863c5a36)"><path style=" stroke:none;fill-rule:nonzero;fill:#040134;fill-opacity:1;" d="M 123.554688 261.222656 L 122.09375 261.066406 C 121.589844 261.011719 121.230469 260.5625 121.285156 260.066406 L 121.558594 257.507812 C 121.613281 257.007812 122.0625 256.648438 122.5625 256.703125 L 124.019531 256.859375 C 124.523438 256.914062 124.882812 257.363281 124.832031 257.859375 L 124.554688 260.417969 C 124.503906 260.914062 124.054688 261.277344 123.554688 261.222656 Z M 123.554688 261.222656 "/></g></g></g></g><g clip-rule="nonzero" clip-path="url(#1c9a1ed20e)"><g clip-rule="nonzero" clip-path="url(#1d1a8a7d01)"><g clip-rule="nonzero" clip-path="url(#e3b08fc37e)"><g clip-rule="nonzero" clip-path="url(#1d81aefccb)"><path style=" stroke:none;fill-rule:nonzero;fill:#040134;fill-opacity:1;" d="M 128.1875 261.71875 L 126.726562 261.5625 C 126.226562 261.511719 125.863281 261.0625 125.917969 260.5625 L 126.191406 258.003906 C 126.246094 257.503906 126.695312 257.148438 127.195312 257.199219 L 128.65625 257.355469 C 129.15625 257.410156 129.519531 257.859375 129.464844 258.355469 L 129.191406 260.914062 C 129.136719 261.414062 128.6875 261.773438 128.1875 261.71875 Z M 128.1875 261.71875 "/></g></g></g></g><g clip-rule="nonzero" clip-path="url(#5f851511ce)"><g clip-rule="nonzero" clip-path="url(#5f940e9af6)"><g clip-rule="nonzero" clip-path="url(#e6948457b5)"><g clip-rule="nonzero" clip-path="url(#cc267e4318)"><path style=" stroke:none;fill-rule:nonzero;fill:#040134;fill-opacity:1;" d="M 132.820312 262.21875 L 131.359375 262.0625 C 130.859375 262.007812 130.496094 261.558594 130.550781 261.0625 L 130.824219 258.503906 C 130.878906 258.003906 131.328125 257.644531 131.828125 257.695312 L 133.289062 257.851562 C 133.789062 257.90625 134.148438 258.355469 134.097656 258.851562 L 133.820312 261.410156 C 133.769531 261.910156 133.320312 262.269531 132.820312 262.21875 Z M 132.820312 262.21875 "/></g></g></g></g><g clip-rule="nonzero" clip-path="url(#369089a9cd)"><g clip-rule="nonzero" clip-path="url(#10bb4a3911)"><g clip-rule="nonzero" clip-path="url(#3e6c5b83b7)"><g clip-rule="nonzero" clip-path="url(#a0a8dd89f3)"><path style=" stroke:none;fill-rule:nonzero;fill:#040134;fill-opacity:1;" d="M 137.453125 262.714844 L 135.992188 262.558594 C 135.488281 262.503906 135.128906 262.054688 135.183594 261.558594 L 135.457031 259 C 135.511719 258.5 135.960938 258.140625 136.460938 258.195312 L 137.917969 258.351562 C 138.421875 258.402344 138.78125 258.851562 138.726562 259.351562 L 138.453125 261.910156 C 138.402344 262.40625 137.953125 262.769531 137.453125 262.714844 Z M 137.453125 262.714844 "/></g></g></g></g><g clip-rule="nonzero" clip-path="url(#f3e1cb4c21)"><g clip-rule="nonzero" clip-path="url(#cb0a98bb9c)"><g clip-rule="nonzero" clip-path="url(#4e9838a55e)"><g clip-rule="nonzero" clip-path="url(#dfd56469db)"><path style=" stroke:none;fill-rule:nonzero;fill:#040134;fill-opacity:1;" d="M 142.085938 263.210938 L 140.625 263.054688 C 140.125 263 139.761719 262.550781 139.816406 262.054688 L 140.089844 259.496094 C 140.144531 258.996094 140.59375 258.636719 141.09375 258.691406 L 142.554688 258.847656 C 143.054688 258.902344 143.417969 259.351562 143.363281 259.847656 L 143.089844 262.40625 C 143.035156 262.902344 142.585938 263.265625 142.085938 263.210938 Z M 142.085938 263.210938 "/></g></g></g></g><g clip-rule="nonzero" clip-path="url(#d2eb2a735b)"><g clip-rule="nonzero" clip-path="url(#9245a51981)"><g clip-rule="nonzero" clip-path="url(#1d25f0482b)"><g clip-rule="nonzero" clip-path="url(#bbf625d1a2)"><path style=" stroke:none;fill-rule:nonzero;fill:#040134;fill-opacity:1;" d="M 146.71875 263.707031 L 145.257812 263.550781 C 144.753906 263.496094 144.394531 263.046875 144.449219 262.550781 L 144.722656 259.992188 C 144.777344 259.492188 145.226562 259.132812 145.726562 259.1875 L 147.183594 259.34375 C 147.6875 259.398438 148.046875 259.847656 147.996094 260.34375 L 147.71875 262.902344 C 147.667969 263.398438 147.21875 263.761719 146.71875 263.707031 Z M 146.71875 263.707031 "/></g></g></g></g><g clip-rule="nonzero" clip-path="url(#e1c7f72581)"><g clip-rule="nonzero" clip-path="url(#aeb051eaf7)"><g clip-rule="nonzero" clip-path="url(#ca85e8a624)"><g clip-rule="nonzero" clip-path="url(#75eee4a593)"><path style=" stroke:none;fill-rule:nonzero;fill:#040134;fill-opacity:1;" d="M 151.351562 264.203125 L 149.890625 264.046875 C 149.390625 263.996094 149.03125 263.546875 149.082031 263.046875 L 149.355469 260.488281 C 149.410156 259.988281 149.859375 259.628906 150.359375 259.683594 L 151.820312 259.839844 C 152.320312 259.894531 152.683594 260.34375 152.628906 260.839844 L 152.355469 263.398438 C 152.300781 263.898438 151.851562 264.257812 151.351562 264.203125 Z M 151.351562 264.203125 "/></g></g></g></g><g clip-rule="nonzero" clip-path="url(#e927233ff3)"><g clip-rule="nonzero" clip-path="url(#85e14d7fcc)"><g clip-rule="nonzero" clip-path="url(#3bf81b49bb)"><g clip-rule="nonzero" clip-path="url(#59da469112)"><path style=" stroke:none;fill-rule:nonzero;fill:#040134;fill-opacity:1;" d="M 155.984375 264.703125 L 154.523438 264.542969 C 154.023438 264.492188 153.660156 264.042969 153.714844 263.546875 L 153.988281 260.988281 C 154.042969 260.488281 154.492188 260.128906 154.992188 260.179688 L 156.453125 260.335938 C 156.953125 260.390625 157.3125 260.839844 157.261719 261.335938 L 156.984375 263.894531 C 156.9375 264.394531 156.484375 264.753906 155.984375 264.703125 Z M 155.984375 264.703125 "/></g></g></g></g><g clip-rule="nonzero" clip-path="url(#ec8ef79ce2)"><g clip-rule="nonzero" clip-path="url(#4bb46c5086)"><g clip-rule="nonzero" clip-path="url(#aa4bf277fd)"><g clip-rule="nonzero" clip-path="url(#2bb99c7af7)"><path style=" stroke:none;fill-rule:nonzero;fill:#040134;fill-opacity:1;" d="M 160.617188 265.199219 L 159.15625 265.042969 C 158.65625 264.988281 158.296875 264.539062 158.347656 264.042969 L 158.625 261.484375 C 158.675781 260.984375 159.125 260.625 159.625 260.679688 L 161.085938 260.835938 C 161.585938 260.886719 161.949219 261.335938 161.894531 261.835938 L 161.621094 264.394531 C 161.566406 264.890625 161.117188 265.253906 160.617188 265.199219 Z M 160.617188 265.199219 "/></g></g></g></g><g clip-rule="nonzero" clip-path="url(#529cb231f4)"><g clip-rule="nonzero" clip-path="url(#74e3d7dacb)"><g clip-rule="nonzero" clip-path="url(#07d50c8c40)"><g clip-rule="nonzero" clip-path="url(#b63c2e02fb)"><path style=" stroke:none;fill-rule:nonzero;fill:#ffffff;fill-opacity:1;" d="M 110.253906 264.046875 L 107.351562 263.734375 C 106.066406 263.597656 105.128906 262.441406 105.265625 261.15625 L 105.957031 254.710938 C 106.09375 253.425781 107.253906 252.496094 108.542969 252.632812 L 111.445312 252.945312 C 112.730469 253.082031 113.667969 254.238281 113.527344 255.519531 L 112.835938 261.96875 C 112.699219 263.25 111.539062 264.183594 110.253906 264.046875 Z M 108.484375 253.160156 C 107.488281 253.054688 106.59375 253.773438 106.484375 254.765625 L 105.792969 261.214844 C 105.6875 262.207031 106.410156 263.101562 107.40625 263.207031 L 110.308594 263.519531 C 111.304688 263.625 112.203125 262.90625 112.308594 261.914062 L 113 255.464844 C 113.105469 254.472656 112.382812 253.578125 111.386719 253.472656 Z M 108.484375 253.160156 "/></g></g></g></g><g clip-rule="nonzero" clip-path="url(#3c1a61bd08)"><g clip-rule="nonzero" clip-path="url(#c9dd9396dd)"><g clip-rule="nonzero" clip-path="url(#bf33fab5a8)"><g clip-rule="nonzero" clip-path="url(#03b2c3bd32)"><path style=" stroke:none;fill-rule:nonzero;fill:#ffffff;fill-opacity:1;" d="M 193.570312 266.570312 C 193.488281 266.765625 193.371094 266.949219 193.222656 267.117188 C 191.542969 269.003906 188.207031 270.371094 184.304688 271.566406 C 182.71875 272.054688 181.070312 272.332031 179.40625 272.386719 C 169.976562 272.691406 160.554688 273.101562 151.121094 273.296875 C 139.757812 273.523438 128.375 272.582031 117.019531 271.820312 C 113.527344 271.585938 110.023438 271.363281 106.527344 271.074219 C 103.808594 270.847656 101.09375 270.582031 98.398438 270.238281 C 97.367188 270.105469 96.339844 269.960938 95.3125 269.804688 C 92.628906 269.277344 90.105469 268.621094 87.804688 267.777344 C 86.664062 267.363281 85.582031 266.898438 84.5625 266.382812 C 84.078125 266.144531 83.609375 265.886719 83.15625 265.621094 C 81.417969 264.417969 79.8125 262.726562 78.292969 260.71875 C 77.949219 260.257812 77.871094 259.679688 78.054688 259.167969 C 80.921875 260.828125 86.167969 263.65625 90.230469 264.71875 C 95.828125 266.183594 178.882812 268.308594 187.320312 268.523438 C 187.800781 268.535156 188.28125 268.480469 188.742188 268.351562 C 189.839844 268.058594 191.953125 267.425781 193.570312 266.570312 Z M 193.570312 266.570312 "/></g></g></g></g><g clip-rule="nonzero" clip-path="url(#b9c1e0df76)"><g clip-rule="nonzero" clip-path="url(#3fa872c787)"><g clip-rule="nonzero" clip-path="url(#dfff2eb532)"><g clip-rule="nonzero" clip-path="url(#af7f0c715f)"><path style=" stroke:none;fill-rule:nonzero;fill:#040134;fill-opacity:1;" d="M 143.105469 275.085938 C 136.796875 276.40625 130.832031 275.878906 125.273438 273.175781 L 126.175781 264.746094 L 144.007812 266.660156 Z M 143.105469 275.085938 "/></g></g></g></g><g clip-rule="nonzero" clip-path="url(#263ff1b5a0)"><g clip-rule="nonzero" clip-path="url(#4146aa1ffc)"><g clip-rule="nonzero" clip-path="url(#1546e4e7d2)"><g clip-rule="nonzero" clip-path="url(#17dc107519)"><path style=" stroke:none;fill-rule:nonzero;fill:#008afa;fill-opacity:1;" d="M 129.746094 265.128906 L 146.320312 266.742188 L 154.171875 275.914062 C 155.121094 277.023438 154.285156 278.507812 152.675781 278.578125 L 148.648438 278.746094 C 147.507812 278.792969 146.371094 278.460938 145.5 277.824219 Z M 129.746094 265.128906 "/></g></g></g></g><g clip-rule="nonzero" clip-path="url(#9e08ba3215)"><g clip-rule="nonzero" clip-path="url(#e9e38aa8aa)"><g clip-rule="nonzero" clip-path="url(#5379d2d02f)"><g clip-rule="nonzero" clip-path="url(#8d19678501)"><path style=" stroke:none;fill-rule:nonzero;fill:#008afa;fill-opacity:1;" d="M 168.082031 261.777344 L 181.207031 262.992188 L 187.421875 270.25 C 188.171875 271.128906 187.511719 272.300781 186.234375 272.355469 L 183.046875 272.488281 C 182.144531 272.527344 181.25 272.265625 180.558594 271.761719 Z M 168.082031 261.777344 "/></g></g></g></g><g clip-rule="nonzero" clip-path="url(#eb0f3a4be4)"><g clip-rule="nonzero" clip-path="url(#fa013c5fe6)"><g clip-rule="nonzero" clip-path="url(#7337e70caf)"><g clip-rule="nonzero" clip-path="url(#c44e8c2ca6)"><path style=" stroke:none;fill-rule:nonzero;fill:#ffffff;fill-opacity:1;" d="M 127.816406 264.921875 L 128.34375 264.980469 L 127.535156 272.550781 L 127.003906 272.492188 Z M 127.816406 264.921875 "/></g></g></g></g><path style=" stroke:none;fill-rule:nonzero;fill:#3871c1;fill-opacity:1;" d="M 31.035156 268.460938 C 30.378906 267.085938 29.660156 265.726562 29.046875 264.308594 C 28.4375 262.886719 27.824219 261.457031 27.210938 260.015625 C 26.902344 259.296875 26.597656 258.570312 26.289062 257.847656 C 26.015625 257.105469 25.738281 256.367188 25.460938 255.625 C 24.917969 254.132812 24.367188 252.636719 23.8125 251.132812 C 23.28125 249.617188 22.835938 248.066406 22.34375 246.523438 C 21.878906 244.964844 21.339844 243.425781 20.964844 241.828125 C 20.554688 240.242188 20.148438 238.648438 19.738281 237.042969 L 19.433594 235.839844 L 19.179688 234.621094 C 19.015625 233.804688 18.847656 232.992188 18.679688 232.171875 C 17.292969 225.636719 16.472656 218.882812 15.949219 212.03125 C 15.859375 210.3125 15.769531 208.589844 15.679688 206.863281 C 15.625 206 15.621094 205.136719 15.621094 204.269531 L 15.613281 201.664062 C 15.542969 198.183594 15.796875 194.699219 15.957031 191.191406 C 16.96875 177.199219 19.847656 163.101562 24.707031 149.683594 L 25.609375 147.164062 C 25.925781 146.332031 26.277344 145.511719 26.609375 144.683594 C 27.289062 143.035156 27.953125 141.378906 28.65625 139.742188 C 30.175781 136.519531 31.605469 133.257812 33.328125 130.144531 L 34.574219 127.789062 C 34.984375 127 35.40625 126.222656 35.871094 125.464844 C 36.777344 123.941406 37.679688 122.417969 38.585938 120.898438 C 39.480469 119.371094 40.507812 117.933594 41.46875 116.453125 C 42.445312 114.984375 43.398438 113.507812 44.46875 112.113281 C 45.511719 110.699219 46.554688 109.289062 47.589844 107.882812 C 48.660156 106.496094 49.789062 105.164062 50.886719 103.8125 L 52.542969 101.800781 C 53.105469 101.136719 53.699219 100.507812 54.277344 99.863281 C 55.441406 98.582031 56.601562 97.304688 57.761719 96.03125 C 58.964844 94.800781 60.1875 93.601562 61.398438 92.394531 C 62.003906 91.792969 62.609375 91.191406 63.214844 90.597656 C 63.832031 90.003906 64.472656 89.449219 65.101562 88.878906 C 66.363281 87.746094 67.621094 86.617188 68.871094 85.488281 C 70.148438 84.394531 71.46875 83.359375 72.757812 82.300781 C 75.3125 80.148438 78.035156 78.269531 80.671875 76.335938 C 81.976562 75.34375 83.382812 74.511719 84.726562 73.609375 C 86.085938 72.734375 87.421875 71.832031 88.785156 70.996094 C 90.167969 70.191406 91.546875 69.390625 92.917969 68.597656 C 94.289062 67.804688 95.640625 67 97.046875 66.3125 C 99.84375 64.902344 102.554688 63.417969 105.371094 62.230469 C 116.480469 57.1875 127.5625 53.773438 137.960938 51.6875 C 148.367188 49.582031 158.085938 48.828125 166.65625 48.789062 C 167.726562 48.78125 168.78125 48.777344 169.816406 48.773438 C 170.855469 48.761719 171.871094 48.84375 172.871094 48.875 C 174.871094 48.980469 176.796875 49.03125 178.640625 49.183594 C 182.328125 49.550781 185.707031 49.832031 188.734375 50.34375 C 190.25 50.574219 191.679688 50.789062 193.027344 50.992188 C 194.363281 51.261719 195.613281 51.519531 196.78125 51.753906 C 197.945312 51.992188 199.019531 52.214844 200.003906 52.417969 C 200.984375 52.644531 201.867188 52.886719 202.664062 53.082031 C 205.824219 53.90625 207.511719 54.347656 207.511719 54.347656 C 207.511719 54.347656 205.792969 54.054688 202.574219 53.511719 C 201.769531 53.371094 200.875 53.203125 199.882812 53.058594 C 198.890625 52.9375 197.804688 52.800781 196.632812 52.65625 C 195.460938 52.511719 194.203125 52.355469 192.859375 52.191406 C 191.511719 52.082031 190.078125 51.964844 188.566406 51.839844 C 185.550781 51.535156 182.1875 51.5 178.542969 51.378906 C 176.71875 51.347656 174.820312 51.417969 172.851562 51.433594 C 171.871094 51.460938 170.867188 51.4375 169.851562 51.503906 C 168.835938 51.566406 167.800781 51.628906 166.75 51.6875 C 158.355469 52.207031 148.929688 53.492188 138.925781 55.976562 C 128.925781 58.460938 118.355469 62.1875 107.820312 67.394531 C 105.152344 68.625 102.585938 70.140625 99.941406 71.570312 C 98.609375 72.273438 97.332031 73.089844 96.039062 73.886719 C 94.742188 74.6875 93.441406 75.492188 92.132812 76.300781 C 90.847656 77.140625 89.589844 78.039062 88.304688 78.914062 C 87.039062 79.816406 85.714844 80.640625 84.488281 81.621094 C 82.003906 83.542969 79.433594 85.398438 77.039062 87.507812 C 75.824219 88.546875 74.582031 89.558594 73.378906 90.628906 C 72.203125 91.726562 71.023438 92.828125 69.835938 93.933594 C 69.246094 94.492188 68.644531 95.03125 68.066406 95.605469 C 67.5 96.1875 66.933594 96.773438 66.363281 97.359375 C 65.230469 98.535156 64.097656 99.710938 62.957031 100.894531 C 61.875 102.128906 60.785156 103.363281 59.695312 104.601562 C 59.15625 105.226562 58.59375 105.835938 58.070312 106.472656 L 56.519531 108.417969 C 55.492188 109.71875 54.433594 111.003906 53.429688 112.328125 C 52.453125 113.679688 51.472656 115.035156 50.492188 116.386719 C 49.488281 117.730469 48.597656 119.148438 47.679688 120.554688 C 46.785156 121.972656 45.8125 123.347656 44.972656 124.808594 C 44.125 126.261719 43.273438 127.71875 42.421875 129.175781 C 41.980469 129.894531 41.582031 130.640625 41.199219 131.394531 L 40.023438 133.640625 C 38.394531 136.605469 37.054688 139.722656 35.609375 142.792969 C 34.949219 144.351562 34.324219 145.929688 33.679688 147.5 C 33.363281 148.285156 33.035156 149.070312 32.734375 149.863281 L 31.886719 152.261719 C 27.21875 165.015625 24.472656 178.421875 23.335938 191.738281 C 23.160156 195.078125 22.882812 198.398438 22.910156 201.71875 L 22.882812 204.199219 C 22.867188 205.027344 22.855469 205.851562 22.898438 206.675781 C 22.957031 208.324219 23.015625 209.96875 23.070312 211.609375 C 23.449219 218.152344 24.109375 224.621094 25.324219 230.894531 C 25.46875 231.679688 25.609375 232.460938 25.753906 233.246094 L 25.964844 234.417969 L 26.234375 235.574219 C 26.589844 237.117188 26.945312 238.65625 27.296875 240.183594 C 27.617188 241.722656 28.101562 243.207031 28.507812 244.707031 C 28.941406 246.199219 29.324219 247.699219 29.800781 249.164062 C 30.289062 250.625 30.777344 252.078125 31.261719 253.519531 C 31.503906 254.242188 31.746094 254.960938 31.992188 255.675781 C 32.265625 256.382812 32.542969 257.085938 32.816406 257.785156 C 33.363281 259.1875 33.910156 260.582031 34.449219 261.96875 C 35 263.347656 35.648438 264.679688 36.234375 266.023438 C 41.046875 276.742188 46.804688 286.308594 52.902344 294.597656 C 59.003906 302.890625 65.4375 309.898438 71.566406 315.65625 C 77.71875 321.394531 83.480469 326.011719 88.46875 329.464844 C 89.71875 330.324219 90.871094 331.191406 92.007812 331.921875 C 93.144531 332.65625 94.210938 333.339844 95.207031 333.980469 C 96.203125 334.613281 97.109375 335.226562 97.96875 335.738281 C 98.839844 336.242188 99.625 336.699219 100.332031 337.105469 C 101.742188 337.925781 102.828125 338.554688 103.558594 338.980469 C 103.917969 339.195312 104.199219 339.347656 104.390625 339.445312 C 104.582031 339.542969 104.679688 339.59375 104.679688 339.59375 C 104.679688 339.59375 104.578125 339.554688 104.378906 339.46875 C 104.179688 339.390625 103.886719 339.261719 103.507812 339.078125 C 102.742188 338.722656 101.605469 338.1875 100.125 337.492188 C 99.386719 337.140625 98.5625 336.746094 97.652344 336.3125 C 96.75 335.867188 95.792969 335.332031 94.738281 334.777344 C 93.691406 334.210938 92.566406 333.605469 91.367188 332.960938 C 90.167969 332.304688 88.949219 331.519531 87.636719 330.730469 C 82.371094 327.59375 76.199219 323.355469 69.628906 317.839844 C 63.050781 312.339844 56.058594 305.546875 49.402344 297.296875 C 42.742188 289.0625 36.398438 279.417969 31.035156 268.460938 "/><path style=" stroke:none;fill-rule:nonzero;fill:#3871c1;fill-opacity:1;" d="M 69.105469 301.910156 C 68.621094 301.398438 68.132812 300.886719 67.640625 300.371094 C 66.664062 299.339844 65.679688 298.304688 64.691406 297.257812 C 63.695312 296.21875 62.796875 295.082031 61.839844 293.988281 C 60.90625 292.867188 59.914062 291.785156 59.011719 290.617188 C 58.113281 289.453125 57.210938 288.277344 56.304688 287.097656 C 55.851562 286.507812 55.398438 285.910156 54.945312 285.316406 C 54.519531 284.703125 54.09375 284.082031 53.667969 283.464844 C 52.8125 282.222656 51.953125 280.980469 51.09375 279.730469 C 50.257812 278.460938 49.484375 277.144531 48.671875 275.847656 C 47.011719 273.261719 45.585938 270.519531 44.085938 267.789062 C 43.308594 266.4375 42.691406 264.996094 41.992188 263.59375 C 41.332031 262.167969 40.589844 260.777344 39.984375 259.316406 C 38.773438 256.398438 37.464844 253.496094 36.449219 250.464844 C 35.925781 248.953125 35.320312 247.464844 34.867188 245.925781 C 34.402344 244.386719 33.9375 242.847656 33.46875 241.300781 C 31.742188 235.089844 30.277344 228.730469 29.445312 222.246094 L 29.097656 219.820312 C 28.980469 219.011719 28.933594 218.191406 28.847656 217.378906 L 28.386719 212.488281 L 28.167969 207.578125 C 28.136719 206.761719 28.074219 205.941406 28.078125 205.121094 L 28.085938 202.660156 C 28.058594 189.539062 29.992188 176.445312 33.488281 164.027344 C 34.4375 160.945312 35.316406 157.855469 36.464844 154.867188 L 37.28125 152.617188 L 37.691406 151.5 L 38.148438 150.398438 C 38.761719 148.933594 39.375 147.46875 39.988281 146.011719 C 42.597656 140.261719 45.386719 134.667969 48.636719 129.460938 C 54.964844 118.949219 62.582031 109.753906 70.625 101.960938 C 78.671875 94.160156 87.199219 87.789062 95.539062 82.777344 C 103.882812 77.75 112.046875 74.085938 119.4375 71.402344 C 120.359375 71.058594 121.269531 70.722656 122.160156 70.394531 C 123.066406 70.105469 123.960938 69.824219 124.835938 69.550781 C 126.597656 69.023438 128.269531 68.445312 129.917969 68.023438 C 133.214844 67.203125 136.222656 66.386719 139 65.90625 C 140.378906 65.628906 141.683594 65.375 142.910156 65.128906 C 144.148438 64.953125 145.3125 64.792969 146.390625 64.640625 C 147.46875 64.488281 148.46875 64.351562 149.382812 64.222656 C 150.296875 64.097656 151.140625 64.054688 151.886719 63.976562 C 154.875 63.722656 156.46875 63.589844 156.46875 63.589844 C 156.46875 63.589844 154.898438 63.871094 151.945312 64.410156 C 151.210938 64.546875 150.386719 64.660156 149.488281 64.867188 C 148.59375 65.074219 147.613281 65.296875 146.558594 65.539062 C 145.503906 65.78125 144.367188 66.042969 143.160156 66.316406 C 141.964844 66.648438 140.695312 67 139.351562 67.367188 C 136.652344 68.042969 133.746094 69.082031 130.570312 70.121094 C 128.984375 70.648438 127.378906 71.332031 125.691406 71.957031 C 124.851562 72.285156 123.996094 72.613281 123.125 72.949219 C 122.269531 73.328125 121.402344 73.707031 120.519531 74.09375 C 113.453125 77.171875 105.746094 81.230469 97.902344 86.488281 C 90.0625 91.742188 82.125 98.234375 74.675781 105.996094 C 67.234375 113.75 60.230469 122.742188 54.4375 132.902344 C 51.441406 137.921875 48.898438 143.300781 46.527344 148.8125 C 45.972656 150.210938 45.417969 151.609375 44.859375 153.011719 L 44.441406 154.0625 L 43.328125 157.285156 C 42.277344 160.132812 41.488281 163.082031 40.605469 166.011719 C 37.453125 177.835938 35.644531 190.238281 35.710938 202.667969 L 35.695312 204.996094 C 35.6875 205.773438 35.75 206.546875 35.773438 207.324219 L 35.96875 211.972656 L 36.390625 216.609375 C 36.46875 217.378906 36.507812 218.15625 36.617188 218.921875 L 36.9375 221.21875 C 37.695312 227.363281 39.039062 233.394531 40.597656 239.308594 C 41.023438 240.777344 41.453125 242.242188 41.878906 243.703125 C 42.292969 245.171875 42.851562 246.589844 43.324219 248.027344 C 44.246094 250.921875 45.441406 253.695312 46.535156 256.492188 C 47.082031 257.894531 47.761719 259.226562 48.363281 260.59375 C 49.003906 261.941406 49.558594 263.328125 50.273438 264.625 C 51.652344 267.253906 52.953125 269.894531 54.488281 272.386719 C 55.230469 273.644531 55.9375 274.921875 56.703125 276.148438 C 57.496094 277.363281 58.285156 278.574219 59.070312 279.773438 C 59.460938 280.375 59.851562 280.976562 60.242188 281.578125 C 60.660156 282.15625 61.078125 282.738281 61.492188 283.3125 C 62.328125 284.464844 63.160156 285.613281 63.984375 286.753906 C 64.8125 287.894531 65.730469 288.953125 66.589844 290.054688 C 67.472656 291.128906 68.296875 292.25 69.21875 293.273438 C 70.132812 294.304688 71.039062 295.328125 71.941406 296.347656 C 72.394531 296.859375 72.84375 297.363281 73.292969 297.871094 C 73.765625 298.355469 74.238281 298.835938 74.710938 299.316406 C 82.160156 307.074219 90.089844 313.566406 97.921875 318.824219 C 105.757812 324.082031 113.472656 328.132812 120.542969 331.195312 C 122.292969 332.007812 124.042969 332.65625 125.722656 333.3125 C 126.5625 333.640625 127.386719 333.964844 128.199219 334.28125 C 129.003906 334.613281 129.824219 334.847656 130.613281 335.128906 C 132.195312 335.667969 133.71875 336.183594 135.171875 336.675781 C 136.644531 337.101562 138.050781 337.511719 139.386719 337.898438 C 144.75 339.382812 149.039062 340.324219 151.984375 340.851562 C 153.457031 341.140625 154.582031 341.390625 155.347656 341.484375 C 156.113281 341.597656 156.507812 341.65625 156.507812 341.65625 C 156.507812 341.65625 156.109375 341.636719 155.335938 341.59375 C 154.558594 341.578125 153.417969 341.433594 151.921875 341.289062 C 148.933594 341 144.546875 340.492188 139.035156 339.371094 C 137.65625 339.085938 136.203125 338.777344 134.683594 338.457031 C 133.175781 338.070312 131.601562 337.660156 129.957031 337.238281 C 129.136719 337.007812 128.285156 336.824219 127.445312 336.550781 C 126.601562 336.285156 125.742188 336.015625 124.867188 335.738281 C 123.117188 335.179688 121.292969 334.632812 119.464844 333.902344 C 112.0625 331.238281 103.894531 327.582031 95.550781 322.550781 C 87.207031 317.535156 78.6875 311.164062 70.632812 303.363281 C 70.125 302.878906 69.617188 302.394531 69.105469 301.910156 "/><path style=" stroke:none;fill-rule:nonzero;fill:#3871c1;fill-opacity:1;" d="M 122.820312 324.046875 C 115.925781 321.316406 109.191406 318 102.800781 314.054688 C 96.417969 310.101562 90.355469 305.585938 84.71875 300.585938 C 79.105469 295.566406 73.878906 290.097656 69.234375 284.195312 C 64.605469 278.285156 60.488281 272.003906 56.933594 265.492188 C 53.339844 259.003906 50.449219 252.210938 48.136719 245.335938 C 45.835938 238.460938 44.085938 231.492188 42.964844 224.542969 C 41.890625 217.585938 41.386719 210.667969 41.390625 203.90625 C 41.351562 197.136719 42.027344 190.53125 43.007812 184.179688 C 43.140625 183.386719 43.273438 182.59375 43.402344 181.808594 C 43.53125 181.019531 43.652344 180.234375 43.835938 179.464844 C 44.171875 177.914062 44.503906 176.375 44.832031 174.851562 C 45.179688 173.328125 45.625 171.84375 46.007812 170.355469 C 46.207031 169.613281 46.40625 168.878906 46.601562 168.140625 C 46.835938 167.417969 47.070312 166.695312 47.300781 165.976562 C 49.042969 160.191406 51.304688 154.800781 53.640625 149.734375 C 58.457031 139.648438 64.101562 131.066406 69.804688 124.082031 C 75.5 117.078125 81.199219 111.636719 86.160156 107.53125 C 86.777344 107.007812 87.34375 106.472656 87.953125 106.011719 C 88.558594 105.546875 89.144531 105.09375 89.710938 104.660156 C 90.851562 103.785156 91.90625 102.957031 92.910156 102.214844 C 94.96875 100.800781 96.71875 99.59375 98.140625 98.621094 C 101.078125 96.824219 102.644531 95.867188 102.644531 95.867188 C 102.644531 95.867188 101.167969 96.945312 98.390625 98.972656 C 97.058594 100.050781 95.410156 101.375 93.476562 102.9375 C 92.535156 103.746094 91.554688 104.648438 90.488281 105.589844 C 89.957031 106.058594 89.410156 106.542969 88.84375 107.042969 C 88.273438 107.535156 87.746094 108.101562 87.167969 108.652344 C 82.535156 113.015625 77.324219 118.75 72.105469 125.851562 C 66.910156 132.972656 61.894531 141.605469 57.660156 151.527344 C 55.621094 156.519531 53.648438 161.792969 52.183594 167.410156 C 51.988281 168.109375 51.789062 168.8125 51.589844 169.511719 C 51.425781 170.226562 51.261719 170.941406 51.097656 171.660156 C 50.78125 173.101562 50.402344 174.539062 50.121094 176.007812 C 49.855469 177.476562 49.585938 178.960938 49.316406 180.453125 C 49.160156 181.199219 49.074219 181.957031 48.972656 182.714844 C 48.875 183.472656 48.773438 184.230469 48.671875 184.996094 C 47.925781 191.09375 47.460938 197.40625 47.667969 203.851562 C 47.835938 210.289062 48.464844 216.84375 49.617188 223.414062 C 50.796875 229.988281 52.574219 236.550781 54.863281 243.007812 C 57.15625 249.472656 59.972656 255.839844 63.414062 261.941406 C 66.839844 268.046875 70.765625 273.953125 75.152344 279.503906 C 79.554688 285.050781 84.492188 290.183594 89.789062 294.894531 C 95.082031 299.617188 100.78125 303.878906 106.777344 307.628906 C 112.78125 311.367188 119.109375 314.535156 125.585938 317.191406 C 132.070312 319.824219 138.722656 321.914062 145.417969 323.464844 C 152.113281 325.023438 158.875 325.910156 165.542969 326.328125 C 166.378906 326.382812 167.210938 326.4375 168.039062 326.488281 C 168.871094 326.542969 169.703125 326.523438 170.53125 326.542969 C 171.359375 326.558594 172.1875 326.570312 173.011719 326.585938 C 173.835938 326.609375 174.660156 326.617188 175.480469 326.574219 C 177.121094 326.527344 178.757812 326.472656 180.382812 326.421875 C 182.003906 326.296875 183.617188 326.167969 185.222656 326.039062 C 191.632812 325.398438 197.863281 324.355469 203.835938 322.886719 C 205.324219 322.519531 206.785156 322.074219 208.25 321.675781 C 208.976562 321.46875 209.710938 321.289062 210.429688 321.0625 C 211.144531 320.824219 211.855469 320.585938 212.5625 320.347656 C 213.976562 319.859375 215.40625 319.453125 216.777344 318.914062 C 218.152344 318.382812 219.515625 317.855469 220.867188 317.328125 C 226.21875 315.101562 231.3125 312.710938 235.984375 309.984375 C 240.722656 307.371094 245.058594 304.488281 249.027344 301.5625 C 252.996094 298.625 256.609375 295.632812 259.859375 292.652344 C 266.300781 286.632812 271.410156 280.820312 275.230469 275.726562 C 279.046875 270.636719 281.78125 266.414062 283.507812 263.457031 C 284.414062 262 285.015625 260.832031 285.46875 260.066406 C 285.90625 259.296875 286.132812 258.898438 286.132812 258.898438 C 286.132812 258.898438 285.9375 259.3125 285.570312 260.117188 C 285.183594 260.917969 284.675781 262.136719 283.894531 263.667969 C 282.371094 266.75 280.011719 271.222656 276.46875 276.605469 C 272.945312 281.996094 268.179688 288.257812 261.898438 294.742188 C 258.742188 297.96875 255.210938 301.238281 251.285156 304.464844 C 247.359375 307.683594 243.035156 310.867188 238.253906 313.777344 C 233.546875 316.804688 228.363281 319.5 222.878906 322.027344 C 221.492188 322.621094 220.09375 323.222656 218.683594 323.832031 C 217.277344 324.441406 215.800781 324.921875 214.34375 325.484375 C 213.613281 325.753906 212.878906 326.027344 212.140625 326.300781 C 211.398438 326.5625 210.640625 326.777344 209.886719 327.019531 C 208.371094 327.484375 206.859375 328 205.3125 328.433594 C 199.113281 330.167969 192.609375 331.457031 185.894531 332.296875 C 184.210938 332.472656 182.519531 332.652344 180.816406 332.832031 C 179.109375 332.925781 177.390625 333.019531 175.664062 333.113281 C 174.800781 333.175781 173.933594 333.1875 173.066406 333.183594 C 172.195312 333.1875 171.324219 333.191406 170.453125 333.199219 C 169.578125 333.195312 168.703125 333.230469 167.824219 333.195312 C 166.949219 333.160156 166.070312 333.117188 165.191406 333.082031 C 158.152344 332.765625 151 331.949219 143.890625 330.429688 C 136.785156 328.914062 129.714844 326.789062 122.820312 324.046875 "/><g clip-rule="nonzero" clip-path="url(#27554d5530)"><path style=" stroke:none;fill-rule:nonzero;fill:#00adef;fill-opacity:1;" d="M 209.433594 355.128906 C 295.953125 328.832031 344.753906 237.429688 318.4375 150.976562 C 292.117188 64.527344 200.640625 15.765625 114.121094 42.0625 C 66.597656 56.507812 30.460938 90.59375 11.894531 132.710938 C 30.359375 81.777344 71.769531 39.859375 127.628906 22.878906 C 221.773438 -5.738281 321.316406 47.328125 349.957031 141.398438 C 378.59375 235.46875 325.492188 334.929688 231.34375 363.546875 C 175.484375 380.527344 117.726562 368.75 74.007812 336.71875 C 112.902344 361.371094 161.914062 369.574219 209.433594 355.128906 "/></g><g style="fill:#2e365e;fill-opacity:1;"><g transform="translate(65.676288, 216.481759)"><path style="stroke:none" d="M 1.921875 -14.65625 C 1.921875 -19.625 3.289062 -23.390625 6.03125 -25.953125 C 8.769531 -28.523438 12.664062 -29.8125 17.71875 -29.8125 C 22.769531 -29.8125 26.671875 -28.519531 29.421875 -25.9375 C 32.179688 -23.351562 33.5625 -19.59375 33.5625 -14.65625 C 33.5625 -11.363281 32.941406 -8.585938 31.703125 -6.328125 C 30.472656 -4.066406 28.679688 -2.351562 26.328125 -1.1875 L 33.015625 5.578125 L 21.8125 5.578125 L 17.296875 0.515625 C 12.347656 0.429688 8.546875 -0.894531 5.890625 -3.46875 C 3.242188 -6.039062 1.921875 -9.769531 1.921875 -14.65625 Z M 23.9375 -16.015625 C 23.9375 -18.085938 23.40625 -19.734375 22.34375 -20.953125 C 21.28125 -22.171875 19.738281 -22.78125 17.71875 -22.78125 C 15.695312 -22.78125 14.160156 -22.171875 13.109375 -20.953125 C 12.066406 -19.734375 11.546875 -18.085938 11.546875 -16.015625 L 11.546875 -13.296875 C 11.546875 -11.222656 12.066406 -9.570312 13.109375 -8.34375 C 14.160156 -7.125 15.695312 -6.515625 17.71875 -6.515625 C 19.738281 -6.515625 21.28125 -7.125 22.34375 -8.34375 C 23.40625 -9.570312 23.9375 -11.222656 23.9375 -13.296875 Z M 23.9375 -16.015625 "/></g></g><g style="fill:#2e365e;fill-opacity:1;"><g transform="translate(101.150396, 216.481759)"><path style="stroke:none" d="M 1.65625 -8.34375 L 1.65625 -15.078125 L 12.515625 -15.078125 L 12.515625 -8.34375 Z M 1.65625 -8.34375 "/></g></g><g style="fill:#2e365e;fill-opacity:1;"><g transform="translate(115.331525, 216.481759)"><path style="stroke:none" d="M 19.59375 -29.296875 C 21.40625 -29.296875 23.019531 -28.878906 24.4375 -28.046875 C 25.863281 -27.210938 26.972656 -26.0625 27.765625 -24.59375 C 28.566406 -23.132812 28.96875 -21.492188 28.96875 -19.671875 L 28.96875 -19.125 C 28.96875 -17.3125 28.566406 -15.664062 27.765625 -14.1875 C 26.972656 -12.707031 25.863281 -11.546875 24.4375 -10.703125 C 23.019531 -9.867188 21.40625 -9.453125 19.59375 -9.453125 L 12.5625 -9.453125 L 12.5625 0 L 3.15625 0 L 3.15625 -29.296875 Z M 12.5625 -16.3125 L 16.4375 -16.3125 C 17.4375 -16.3125 18.179688 -16.566406 18.671875 -17.078125 C 19.171875 -17.585938 19.421875 -18.285156 19.421875 -19.171875 L 19.421875 -19.515625 C 19.421875 -20.421875 19.171875 -21.117188 18.671875 -21.609375 C 18.179688 -22.109375 17.4375 -22.359375 16.4375 -22.359375 L 12.5625 -22.359375 Z M 12.5625 -16.3125 "/></g></g><g style="fill:#2e365e;fill-opacity:1;"><g transform="translate(146.078593, 216.481759)"><path style="stroke:none" d="M 17.71875 -29.8125 C 22.769531 -29.8125 26.671875 -28.519531 29.421875 -25.9375 C 32.179688 -23.351562 33.5625 -19.59375 33.5625 -14.65625 C 33.5625 -9.707031 32.179688 -5.941406 29.421875 -3.359375 C 26.671875 -0.773438 22.769531 0.515625 17.71875 0.515625 C 12.664062 0.515625 8.769531 -0.769531 6.03125 -3.34375 C 3.289062 -5.914062 1.921875 -9.6875 1.921875 -14.65625 C 1.921875 -19.625 3.289062 -23.390625 6.03125 -25.953125 C 8.769531 -28.523438 12.664062 -29.8125 17.71875 -29.8125 Z M 17.71875 -22.78125 C 15.695312 -22.78125 14.160156 -22.171875 13.109375 -20.953125 C 12.066406 -19.734375 11.546875 -18.085938 11.546875 -16.015625 L 11.546875 -13.296875 C 11.546875 -11.222656 12.066406 -9.570312 13.109375 -8.34375 C 14.160156 -7.125 15.695312 -6.515625 17.71875 -6.515625 C 19.738281 -6.515625 21.28125 -7.125 22.34375 -8.34375 C 23.40625 -9.570312 23.9375 -11.222656 23.9375 -13.296875 L 23.9375 -16.015625 C 23.9375 -18.085938 23.40625 -19.734375 22.34375 -20.953125 C 21.28125 -22.171875 19.738281 -22.78125 17.71875 -22.78125 Z M 17.71875 -22.78125 "/></g></g><g style="fill:#2e365e;fill-opacity:1;"><g transform="translate(181.5527, 216.481759)"><path style="stroke:none" d="M 30.96875 -20.3125 C 30.96875 -18.53125 30.484375 -16.914062 29.515625 -15.46875 C 28.546875 -14.019531 27.140625 -12.953125 25.296875 -12.265625 L 31.8125 0 L 21.25 0 L 16.0625 -10.6875 L 12.5625 -10.6875 L 12.5625 0 L 3.15625 0 L 3.15625 -29.296875 L 21.078125 -29.296875 C 23.179688 -29.296875 24.976562 -28.890625 26.46875 -28.078125 C 27.957031 -27.273438 29.078125 -26.1875 29.828125 -24.8125 C 30.585938 -23.4375 30.96875 -21.9375 30.96875 -20.3125 Z M 21.375 -19.9375 C 21.375 -20.695312 21.117188 -21.332031 20.609375 -21.84375 C 20.097656 -22.363281 19.472656 -22.625 18.734375 -22.625 L 12.5625 -22.625 L 12.5625 -17.203125 L 18.734375 -17.203125 C 19.472656 -17.203125 20.097656 -17.460938 20.609375 -17.984375 C 21.117188 -18.515625 21.375 -19.164062 21.375 -19.9375 Z M 21.375 -19.9375 "/></g></g><g style="fill:#2e365e;fill-opacity:1;"><g transform="translate(214.68458, 216.481759)"><path style="stroke:none" d="M 20.015625 -21.8125 L 20.015625 0 L 10.609375 0 L 10.609375 -21.8125 L 0.984375 -21.8125 L 0.984375 -29.296875 L 29.609375 -29.296875 L 29.609375 -21.8125 Z M 20.015625 -21.8125 "/></g></g><g style="fill:#2e365e;fill-opacity:1;"><g transform="translate(245.431648, 216.481759)"><path style="stroke:none" d="M 3.15625 -29.296875 L 28.5 -29.296875 L 28.5 -22.28125 L 12.5625 -22.28125 L 12.5625 -18.234375 L 26.1875 -18.234375 L 26.1875 -11.5 L 12.5625 -11.5 L 12.5625 -7.03125 L 28.796875 -7.03125 L 28.796875 0 L 3.15625 0 Z M 3.15625 -29.296875 "/></g></g><g style="fill:#2e365e;fill-opacity:1;"><g transform="translate(276.178717, 216.481759)"><path style="stroke:none" d="M 30.96875 -20.3125 C 30.96875 -18.53125 30.484375 -16.914062 29.515625 -15.46875 C 28.546875 -14.019531 27.140625 -12.953125 25.296875 -12.265625 L 31.8125 0 L 21.25 0 L 16.0625 -10.6875 L 12.5625 -10.6875 L 12.5625 0 L 3.15625 0 L 3.15625 -29.296875 L 21.078125 -29.296875 C 23.179688 -29.296875 24.976562 -28.890625 26.46875 -28.078125 C 27.957031 -27.273438 29.078125 -26.1875 29.828125 -24.8125 C 30.585938 -23.4375 30.96875 -21.9375 30.96875 -20.3125 Z M 21.375 -19.9375 C 21.375 -20.695312 21.117188 -21.332031 20.609375 -21.84375 C 20.097656 -22.363281 19.472656 -22.625 18.734375 -22.625 L 12.5625 -22.625 L 12.5625 -17.203125 L 18.734375 -17.203125 C 19.472656 -17.203125 20.097656 -17.460938 20.609375 -17.984375 C 21.117188 -18.515625 21.375 -19.164062 21.375 -19.9375 Z M 21.375 -19.9375 "/></g></g></g></svg>